<mxfile host="app.diagrams.net" agent="Mozilla/5.0 (Windows NT 10.0; Win64; x64) AppleWebKit/537.36 (KHTML, like Gecko) Chrome/128.0.0.0 Safari/537.36" version="24.7.13">
  <diagram name="Page-1" id="Tt1kkHZvHX2ZIXlipHle">
    <mxGraphModel dx="1450" dy="1015" grid="0" gridSize="10" guides="1" tooltips="1" connect="1" arrows="1" fold="1" page="0" pageScale="1" pageWidth="850" pageHeight="1100" math="0" shadow="0">
      <root>
        <mxCell id="0" />
        <mxCell id="1" parent="0" />
        <mxCell id="9hVojgO-kaeBEverVEj9-18" value="Shared Responsibility Model" style="rounded=1;whiteSpace=wrap;html=1;labelPosition=center;verticalLabelPosition=top;align=center;verticalAlign=bottom;fontStyle=1;fontSize=20;horizontal=1;fillColor=#fad9d5;strokeColor=#ae4132;" vertex="1" parent="1">
          <mxGeometry x="-71" y="-19" width="684" height="431" as="geometry" />
        </mxCell>
        <mxCell id="9hVojgO-kaeBEverVEj9-1" value="AWS Responsibility" style="rounded=1;whiteSpace=wrap;html=1;fontStyle=1;arcSize=0;fontSize=18;fillColor=#dae8fc;strokeColor=#6c8ebf;" vertex="1" parent="1">
          <mxGeometry x="9" y="212" width="165" height="128" as="geometry" />
        </mxCell>
        <mxCell id="9hVojgO-kaeBEverVEj9-2" value="Customer Responsibility" style="rounded=1;whiteSpace=wrap;html=1;fontStyle=1;arcSize=2;fontSize=18;fillColor=#dae8fc;strokeColor=#6c8ebf;" vertex="1" parent="1">
          <mxGeometry x="11" y="36" width="165" height="159" as="geometry" />
        </mxCell>
        <mxCell id="9hVojgO-kaeBEverVEj9-3" value="Customer Data" style="rounded=0;whiteSpace=wrap;html=1;fontStyle=1;fontSize=12;fillColor=#fff2cc;strokeColor=#d6b656;" vertex="1" parent="1">
          <mxGeometry x="176" y="36" width="387" height="31" as="geometry" />
        </mxCell>
        <mxCell id="9hVojgO-kaeBEverVEj9-4" value="Platform, Applications, Identity and Access Management" style="rounded=0;whiteSpace=wrap;html=1;fontStyle=1;fontSize=12;fillColor=#fff2cc;strokeColor=#d6b656;" vertex="1" parent="1">
          <mxGeometry x="176" y="70" width="387" height="31" as="geometry" />
        </mxCell>
        <mxCell id="9hVojgO-kaeBEverVEj9-5" value="Operating System, Network &amp;amp; Firewall Configuration" style="rounded=0;whiteSpace=wrap;html=1;fontStyle=1;fontSize=12;fillColor=#fff2cc;strokeColor=#d6b656;" vertex="1" parent="1">
          <mxGeometry x="176" y="104" width="387" height="31" as="geometry" />
        </mxCell>
        <mxCell id="9hVojgO-kaeBEverVEj9-6" value="Client-side data encryption &amp;amp; Data Integrity Authentication" style="rounded=0;whiteSpace=wrap;html=1;fontStyle=1;fontSize=12;fillColor=#fff2cc;strokeColor=#d6b656;" vertex="1" parent="1">
          <mxGeometry x="176" y="140" width="126" height="56" as="geometry" />
        </mxCell>
        <mxCell id="9hVojgO-kaeBEverVEj9-7" value="Server - side Encryption&amp;nbsp;&lt;div style=&quot;font-size: 12px;&quot;&gt;(File System and/or Data)&lt;/div&gt;" style="rounded=0;whiteSpace=wrap;html=1;fontStyle=1;fontSize=12;fillColor=#fff2cc;strokeColor=#d6b656;" vertex="1" parent="1">
          <mxGeometry x="306.5" y="139" width="126" height="56" as="geometry" />
        </mxCell>
        <mxCell id="9hVojgO-kaeBEverVEj9-8" value="Networking Traffic Protection (Encryption, Integrity, Identity)" style="rounded=0;whiteSpace=wrap;html=1;fontStyle=1;fontSize=12;fillColor=#fff2cc;strokeColor=#d6b656;" vertex="1" parent="1">
          <mxGeometry x="437" y="139" width="126" height="56" as="geometry" />
        </mxCell>
        <mxCell id="9hVojgO-kaeBEverVEj9-9" value="Software" style="rounded=0;whiteSpace=wrap;html=1;fontStyle=1;fontSize=12;fillColor=#d5e8d4;strokeColor=#82b366;" vertex="1" parent="1">
          <mxGeometry x="174" y="212" width="387" height="31" as="geometry" />
        </mxCell>
        <mxCell id="9hVojgO-kaeBEverVEj9-10" value="Hardware / AWS Global Infrastructure" style="rounded=0;whiteSpace=wrap;html=1;fontStyle=1;fontSize=12;fillColor=#d5e8d4;strokeColor=#82b366;" vertex="1" parent="1">
          <mxGeometry x="174" y="274" width="387" height="31" as="geometry" />
        </mxCell>
        <mxCell id="9hVojgO-kaeBEverVEj9-11" value="Compute" style="rounded=0;whiteSpace=wrap;html=1;fontStyle=1;fontSize=12;fillColor=#d5e8d4;strokeColor=#82b366;" vertex="1" parent="1">
          <mxGeometry x="174" y="243" width="96" height="31" as="geometry" />
        </mxCell>
        <mxCell id="9hVojgO-kaeBEverVEj9-12" value="Storage" style="rounded=0;whiteSpace=wrap;html=1;fontStyle=1;fontSize=12;fillColor=#d5e8d4;strokeColor=#82b366;" vertex="1" parent="1">
          <mxGeometry x="273" y="243" width="92" height="31" as="geometry" />
        </mxCell>
        <mxCell id="9hVojgO-kaeBEverVEj9-13" value="Database" style="rounded=0;whiteSpace=wrap;html=1;fontStyle=1;fontSize=12;fillColor=#d5e8d4;strokeColor=#82b366;" vertex="1" parent="1">
          <mxGeometry x="368" y="243" width="83" height="31" as="geometry" />
        </mxCell>
        <mxCell id="9hVojgO-kaeBEverVEj9-14" value="Networking" style="rounded=0;whiteSpace=wrap;html=1;fontStyle=1;fontSize=12;fillColor=#d5e8d4;strokeColor=#82b366;" vertex="1" parent="1">
          <mxGeometry x="454" y="243" width="107" height="31" as="geometry" />
        </mxCell>
        <mxCell id="9hVojgO-kaeBEverVEj9-15" value="Regions" style="rounded=0;whiteSpace=wrap;html=1;fontStyle=1;fontSize=12;fillColor=#d5e8d4;strokeColor=#82b366;" vertex="1" parent="1">
          <mxGeometry x="174" y="308" width="125" height="31" as="geometry" />
        </mxCell>
        <mxCell id="9hVojgO-kaeBEverVEj9-16" value="Availability Zones" style="rounded=0;whiteSpace=wrap;html=1;fontStyle=1;fontSize=12;fillColor=#d5e8d4;strokeColor=#82b366;" vertex="1" parent="1">
          <mxGeometry x="302" y="308" width="125" height="31" as="geometry" />
        </mxCell>
        <mxCell id="9hVojgO-kaeBEverVEj9-17" value="Edge Locations" style="rounded=0;whiteSpace=wrap;html=1;fontStyle=1;fontSize=12;fillColor=#d5e8d4;strokeColor=#82b366;" vertex="1" parent="1">
          <mxGeometry x="430" y="308" width="131" height="31" as="geometry" />
        </mxCell>
      </root>
    </mxGraphModel>
  </diagram>
</mxfile>
